{"title":"WWE Friday Night SmackDown 29 07 2011 _theMIZ","uid":6570732,"size":522124522,"categoryP":"video","categoryS":"tv_shows","magnet":"?xt=urn:btih:17b3db7ae5ff752c729dbeb0de21c3f3fd3b2fc9&amp;dn=WWE+Friday+Night+SmackDown+29+07+2011+_theMIZ&amp;tr=udp%3A%2F%2Ftracker.openbittorrent.com%3A80&amp;tr=udp%3A%2F%2Fopen.demonii.com%3A1337&amp;tr=udp%3A%2F%2Ftracker.coppersurfer.tk%3A6969&amp;tr=udp%3A%2F%2Fexodus.desync.com%3A6969","seeders":0,"leechers":1,"uploader":"dmizz24","files":6,"time":1311961828,"description":"please SEED after download\n_________________________________________________________________\n\ncomplete WWE Friday Night SmackDown of 29 07 2011..\nenjoy \n\nits in 6parts..description of first file is under..\n\nGeneral\n\nFormat                           : Flash Video\nFile size                        : 76.4 MiB\nDuration                         : 14mn 27s\nOverall bit rate                 : 738 Kbps\nhttphostheader                   :\n\nVideo\n\nFormat                           : AVC\nFormat/Info                      : Advanced Video Codec\nFormat profile                   : &lt;a class=&quot;__cf_email__&quot; href=&quot;/cdn-cgi/l/email-protection&quot; data-cfemail=&quot;e7aa868e89a7abd4c9d7&quot;&gt;[email&amp;#160;protected]&lt;/a&gt;&lt;script cf-hash='f9e31' type=&quot;text/javascript&quot;&gt;\n/* &lt;![CDATA[ */!function(){try{var t=&quot;currentScript&quot;in document?document.currentScript:function(){for(var t=document.getElementsByTagName(&quot;script&quot;),e=t.length;e--;)if(t[e].getAttribute(&quot;cf-hash&quot;))return t[e]}();if(t&amp;&amp;t.previousSibling){var e,r,n,i,c=t.previousSibling,a=c.getAttribute(&quot;data-cfemail&quot;);if(a){for(e=&quot;&quot;,r=parseInt(a.substr(0,2),16),n=2;a.length-n;n+=2)i=parseInt(a.substr(n,2),16)^r,e+=String.fromCharCode(i);e=document.createTextNode(e),c.parentNode.replaceChild(e,c)}}}catch(u){}}();/* ]]&gt; */&lt;/script&gt;\nFormat settings, CABAC           : Yes\nFormat settings, ReFrames        : 3 frames\nFormat settings, GOP             : M=1, N=37\nCodec ID                         : 7\nDuration                         : 14mn 27s\nBit rate                         : 601 Kbps\nWidth                            : 624 pixels\nHeight                           : 352 pixels\nDisplay aspect ratio             : 16:9\nFrame rate mode                  : Constant\nFrame rate                       : 25.000 fps\nColor space                      : YUV\nChroma subsampling               : 4:2:0\nBit depth                        : 8 bits\nScan type                        : Progressive\nBits/(Pixel*Frame)               : 0.110\nStream size                      : 62.2 MiB (81%)\n\nAudio\n\nFormat                           : AAC\nFormat/Info                      : Advanced Audio Codec\nFormat profile                   : LC\nCodec ID                         : 10\nDuration                         : 14mn 27s\nBit rate                         : 129 Kbps\nChannel(s)                       : 2 channels\nChannel positions                : Front: L R\nSampling rate                    : 44.1 KHz\nCompression mode                 : Lossy\nStream size                      : 13.3 MiB (17%)\n__________________________________________________________________\n\nplease SEED after download\n","torrent":{"xt":"urn:btih:17b3db7ae5ff752c729dbeb0de21c3f3fd3b2fc9","amp;dn":"WWE+Friday+Night+SmackDown+29+07+2011+_theMIZ","amp;tr":["udp%3A%2F%2Ftracker.openbittorrent.com%3A80","udp%3A%2F%2Fopen.demonii.com%3A1337","udp%3A%2F%2Ftracker.coppersurfer.tk%3A6969","udp%3A%2F%2Fexodus.desync.com%3A6969"],"infoHash":"17b3db7ae5ff752c729dbeb0de21c3f3fd3b2fc9","infoHashBuffer":{"type":"Buffer","data":[23,179,219,122,229,255,117,44,114,157,190,176,222,33,195,243,253,59,47,201]},"announce":[],"urlList":[]}}